<?xml version="1.0" standalone="no"?>
<!DOCTYPE svg PUBLIC "-//W3C//DTD SVG 20010904//EN"
 "http://www.w3.org/TR/2001/REC-SVG-20010904/DTD/svg10.dtd">
<svg version="1.0" xmlns="http://www.w3.org/2000/svg"
 width="405.000000pt" height="405.000000pt" viewBox="0 0 405.000000 405.000000"
 preserveAspectRatio="xMidYMid meet">
<metadata>
Created by potrace 1.14, written by Peter Selinger 2001-2017
</metadata>
<g transform="translate(0.000000,405.000000) scale(0.100000,-0.100000)"
fill="#000000" stroke="none">
<path d="M659 2749 c-6 -12 -29 -69 -51 -127 -56 -151 -88 -234 -99 -257 -5
-11 -83 -213 -174 -449 -92 -235 -177 -446 -191 -468 -14 -22 -45 -52 -69 -66
-39 -24 -62 -49 -52 -58 2 -2 331 -6 384 -4 6 0 10 8 9 18 -2 12 -16 19 -53
23 -91 11 -125 47 -125 127 1 51 8 74 75 252 l44 115 249 3 249 2 67 -182 c74
-199 84 -235 74 -272 -6 -26 -53 -46 -108 -46 -22 0 -28 -5 -28 -22 l0 -23
240 3 c231 3 240 3 240 22 0 14 -7 20 -21 20 -53 0 -97 58 -148 195 -13 33
-27 69 -32 80 -5 11 -18 45 -29 75 -11 30 -25 64 -30 75 -5 11 -45 115 -89
230 -44 116 -125 325 -179 465 -54 140 -102 263 -105 273 -9 23 -34 22 -48 -4z
m44 -487 c49 -130 99 -264 112 -297 l23 -60 -226 -3 c-124 -1 -227 0 -229 2
-6 5 220 596 227 596 3 0 45 -107 93 -238z"/>
<path d="M2430 2740 c0 -15 7 -20 26 -20 15 0 45 -5 67 -12 72 -22 70 -7 70
-653 0 -602 -2 -639 -45 -670 -12 -8 -44 -18 -70 -21 -40 -6 -48 -10 -48 -28
0 -21 3 -21 200 -21 l199 0 -1 23 c-2 17 -9 22 -33 23 -71 1 -106 16 -133 56
-16 25 -17 74 -19 618 l-3 590 26 -65 c15 -36 32 -78 39 -95 7 -16 65 -165
128 -330 342 -885 322 -839 343 -827 14 8 82 183 390 1017 47 127 91 246 99
265 12 30 13 -42 14 -540 0 -334 -4 -590 -9 -611 -14 -50 -39 -69 -102 -76
-43 -4 -54 -9 -55 -24 -2 -17 12 -19 257 -21 236 -3 259 -2 263 14 6 23 -1 28
-40 28 -55 0 -99 24 -112 60 -8 24 -10 207 -8 637 l2 605 28 24 c17 14 46 26
76 30 37 5 51 11 54 25 5 19 -2 19 -175 17 l-181 -3 -49 -135 c-27 -74 -57
-155 -67 -180 -10 -25 -85 -226 -167 -447 -82 -222 -151 -403 -154 -403 -3 0
-18 35 -34 78 -16 42 -60 158 -97 257 -38 99 -125 326 -193 505 l-123 325
-182 3 c-176 2 -181 2 -181 -18z"/>
<path d="M1380 2701 c-83 -28 -113 -47 -163 -100 -84 -90 -119 -194 -112 -340
7 -161 60 -282 255 -581 123 -187 210 -347 210 -384 0 -23 5 -21 67 29 69 57
150 104 323 190 74 37 142 71 150 75 206 121 183 105 284 205 89 88 135 166
159 271 62 267 -167 507 -442 463 -67 -10 -132 -43 -193 -97 -27 -25 -48 -38
-49 -30 -3 59 -50 149 -105 203 -101 99 -260 139 -384 96z"/>
</g>
</svg>
